<svg width="155" height="20" viewBox="0 0 155 20" fill="none" xmlns="http://www.w3.org/2000/svg">
<g clip-path="url(#clip0_202_4)">
<mask id="mask0_202_4" style="mask-type:luminance" maskUnits="userSpaceOnUse" x="0" y="0" width="155" height="20">
<path d="M152 0H3C1.34315 0 0 1.34315 0 3V17C0 18.6569 1.34315 20 3 20H152C153.657 20 155 18.6569 155 17V3C155 1.34315 153.657 0 152 0Z" fill="white"/>
</mask>
<g mask="url(#mask0_202_4)">
<path d="M155 0H0V20H155V0Z" fill="#555555"/>
<path d="M160.93 20.8436C154.738 7.26796 155.62 -6.44946 155.62 -6.44946C155.62 -6.44946 152.096 -7.54185 142.529 -0.90244C138.802 1.69489 137.149 2.43102 134.819 3.24235C133.472 3.71089 132.017 3.9505 131.775 5.64368C131.476 7.72171 129.691 14.2424 126.992 18.9872C124.294 23.7319 123.064 27.5566 124.06 29.4301C124.06 29.4301 123.689 27.921 126.932 28.0078C129.569 28.07 132.952 28.2207 139.916 26.0065C145.865 24.1246 152.293 21.2594 160.949 20.8323L160.93 20.8436Z" fill="url(#paint0_linear_202_4)"/>
<path d="M126.96 18.9753C128.217 16.7743 129.295 14.1807 130.073 11.8218C130.379 11.7297 130.685 11.6377 130.998 11.5127C133.328 10.7013 139.443 8.83906 143.189 6.2305C150.758 0.968416 154.537 0.564958 155.801 0.613295C156.25 5.85215 157.518 13.3621 160.917 20.8205C152.28 21.2363 145.82 24.091 139.884 25.9947C132.92 28.2088 129.55 28.08 126.9 27.9959C123.638 27.9204 124.028 29.4183 124.028 29.4183C123.038 27.5117 124.249 23.6983 126.96 18.9753Z" fill="url(#paint1_linear_202_4)"/>
<path d="M155.801 0.613295C156.045 3.48483 156.545 7.0551 157.497 10.9154C150.61 11.9434 145.446 14.5936 140.582 16.4824C134.289 18.9178 131.116 18.9068 128.652 18.919C127.784 18.931 127.196 19.0708 126.807 19.2408C126.858 19.1523 126.909 19.0638 126.96 18.9753C128.217 16.7743 129.295 14.1807 130.073 11.8218C130.379 11.7297 130.685 11.6377 130.998 11.5127C133.328 10.7013 139.443 8.83906 143.189 6.2305C150.758 0.968416 154.537 0.564958 155.801 0.613295Z" fill="url(#paint2_linear_202_4)"/>
<path d="M118.391 25.1175C119.5 21.3055 121.955 15.2693 122.153 13.8072C122.662 9.93767 120.612 7.97995 120.612 7.97995C120.612 7.97995 122.438 8.10829 126.025 7.55387C129.14 7.07182 131.221 6.14323 131.725 5.90581C131.388 8.26967 129.558 14.4069 126.968 18.9417C124.283 23.6204 123.059 27.4121 124.011 29.3411C124.209 29.9858 125.032 30.2926 125.032 30.2926C123.941 31.6354 120.672 30.3639 119.823 30.3647C118.789 30.3571 118.872 31.2447 119.198 31.5804C119.281 31.678 119.428 31.7967 119.428 31.7967C117.876 31.0391 117.39 28.6318 118.41 25.1063L118.391 25.1175Z" fill="url(#paint3_linear_202_4)"/>
<path d="M142.681 11.0669C142.681 11.0669 145.041 6.57925 146.757 4.02074C150.694 -1.8604 155.62 -6.44946 155.62 -6.44946C155.62 -6.44946 154.994 7.17664 160.93 20.8436C158.377 20.9667 142.681 11.0669 142.681 11.0669Z" fill="#F10017"/>
<path style="mix-blend-mode:multiply" opacity="0.55" d="M160.93 20.8436C154.738 7.26796 155.62 -6.44946 155.62 -6.44946C155.62 -6.44946 152.096 -7.54185 142.529 -0.90244C138.802 1.69489 137.149 2.43102 134.819 3.24235C133.472 3.71089 132.017 3.9505 131.775 5.64368C131.476 7.72171 129.691 14.2424 126.992 18.9872C124.294 23.7319 123.064 27.5566 124.06 29.4301C124.06 29.4301 123.689 27.921 126.932 28.0078C129.569 28.07 132.952 28.2207 139.916 26.0065C145.865 24.1246 152.293 21.2594 160.949 20.8323L160.93 20.8436Z" fill="url(#paint4_linear_202_4)"/>
<path d="M122.15 13.8108C122.182 13.558 122.213 13.3051 122.226 13.0636L130.11 11.89C129.287 14.2167 128.216 16.7773 126.978 18.9671C126.57 19.675 126.219 20.3492 125.887 21.0122C124.547 21.5355 121.694 22.5077 119.293 22.3653C120.492 18.8813 122.016 14.9428 122.169 13.7995L122.15 13.8108Z" fill="url(#paint5_linear_202_4)"/>
<path d="M129.685 13.0445C128.262 13.6458 125.051 14.7985 122 14.5116C122.089 14.225 122.134 13.994 122.153 13.8072C122.662 9.93767 120.612 7.97995 120.612 7.97995C120.612 7.97995 122.438 8.10829 126.025 7.55387C129.14 7.07182 131.221 6.14323 131.725 5.90581C131.522 7.31317 130.789 10.0556 129.673 13.0228L129.685 13.0445Z" fill="url(#paint6_linear_202_4)"/>
</g>
<path d="M8.13477 8.99414H6.34619L5.85205 11.0137H7.50635V11.7388H5.66406L5.10547 14H4.4126L4.97119 11.7388H3.521L2.9624 14H2.26953L2.82812 11.7388H1.22754V11.0137H3.01611L3.51025 8.99414H1.85596V8.26904H3.69824L4.26221 6.00244H4.95508L4.39111 8.26904H5.84131L6.40527 6.00244H7.09814L6.53418 8.26904H8.13477V8.99414ZM5.66943 8.9834H4.19775L3.69287 11.0244H5.16455L5.66943 8.9834ZM16.0679 11.7173C16.0679 12.0288 15.9945 12.3368 15.8477 12.6411C15.7044 12.9455 15.5021 13.2033 15.2407 13.4146C14.9543 13.6437 14.6195 13.8228 14.2363 13.9517C13.8568 14.0806 13.3984 14.145 12.8613 14.145C12.2848 14.145 11.7656 14.0913 11.3037 13.9839C10.8454 13.8765 10.3781 13.7171 9.90186 13.5059V12.1738H9.97705C10.3817 12.5104 10.849 12.77 11.3789 12.9526C11.9089 13.1353 12.4066 13.2266 12.8721 13.2266C13.5309 13.2266 14.043 13.103 14.4082 12.856C14.777 12.6089 14.9614 12.2795 14.9614 11.8677C14.9614 11.5132 14.8737 11.2518 14.6982 11.0835C14.5264 10.9152 14.2632 10.7845 13.9087 10.6914C13.6401 10.6198 13.3483 10.5607 13.0332 10.5142C12.7217 10.4676 12.3905 10.4085 12.0396 10.3369C11.3306 10.1865 10.8042 9.9305 10.4604 9.56885C10.1203 9.20361 9.9502 8.72917 9.9502 8.14551C9.9502 7.47591 10.2331 6.92806 10.7988 6.50195C11.3646 6.07227 12.0825 5.85742 12.9526 5.85742C13.5148 5.85742 14.0304 5.91113 14.4995 6.01855C14.9686 6.12598 15.384 6.25846 15.7456 6.41602V7.67285H15.6704C15.366 7.41504 14.965 7.20199 14.4673 7.03369C13.9731 6.86182 13.4665 6.77588 12.9473 6.77588C12.3779 6.77588 11.9196 6.89404 11.5723 7.13037C11.2285 7.3667 11.0566 7.67106 11.0566 8.04346C11.0566 8.37646 11.1426 8.63786 11.3145 8.82764C11.4863 9.01742 11.7889 9.16243 12.2222 9.2627C12.4513 9.31283 12.7772 9.3737 13.1997 9.44531C13.6222 9.51693 13.9803 9.59033 14.2739 9.66553C14.8683 9.82308 15.3159 10.0612 15.6167 10.3799C15.9175 10.6986 16.0679 11.1444 16.0679 11.7173ZM20.8105 13.9463C20.6208 13.9964 20.4131 14.0376 20.1875 14.0698C19.9655 14.1021 19.7668 14.1182 19.5913 14.1182C18.979 14.1182 18.5135 13.9535 18.1948 13.624C17.8761 13.2946 17.7168 12.7664 17.7168 12.0396V8.84912H17.0347V8.00049H17.7168V6.27637H18.7266V8.00049H20.8105V8.84912H18.7266V11.583C18.7266 11.8981 18.7337 12.1452 18.748 12.3242C18.7624 12.4997 18.8125 12.6644 18.8984 12.8184C18.9772 12.9616 19.0846 13.0672 19.2207 13.1353C19.3604 13.1997 19.5716 13.2319 19.8545 13.2319C20.0192 13.2319 20.1911 13.2087 20.3701 13.1621C20.5492 13.112 20.6781 13.0708 20.7568 13.0386H20.8105V13.9463ZM26.6973 14H25.6929V13.3608C25.6034 13.4217 25.4816 13.5076 25.3276 13.6187C25.1772 13.7261 25.0304 13.812 24.8872 13.8765C24.7189 13.9588 24.5256 14.0269 24.3071 14.0806C24.0887 14.1379 23.8327 14.1665 23.5391 14.1665C22.9984 14.1665 22.54 13.9875 22.1641 13.6294C21.7881 13.2713 21.6001 12.8148 21.6001 12.2598C21.6001 11.805 21.6968 11.438 21.8901 11.1587C22.0871 10.8758 22.3664 10.6538 22.728 10.4927C23.0933 10.3315 23.5319 10.2223 24.0439 10.165C24.556 10.1077 25.1056 10.0648 25.6929 10.0361V9.88037C25.6929 9.6512 25.6517 9.46143 25.5693 9.31104C25.4906 9.16064 25.376 9.04248 25.2256 8.95654C25.0824 8.87419 24.9105 8.81868 24.71 8.79004C24.5094 8.76139 24.3 8.74707 24.0815 8.74707C23.8166 8.74707 23.5212 8.78288 23.1953 8.85449C22.8695 8.92253 22.5329 9.02279 22.1855 9.15527H22.1318V8.12939C22.3288 8.07568 22.6134 8.0166 22.9858 7.95215C23.3582 7.8877 23.7253 7.85547 24.0869 7.85547C24.5094 7.85547 24.8765 7.89128 25.188 7.96289C25.5031 8.03092 25.7752 8.14909 26.0044 8.31738C26.23 8.4821 26.4019 8.69515 26.52 8.95654C26.6382 9.21794 26.6973 9.54199 26.6973 9.92871V14ZM25.6929 12.5229V10.8525C25.3849 10.8704 25.0215 10.8973 24.6025 10.9331C24.1872 10.9689 23.8577 11.0208 23.6143 11.0889C23.3242 11.1712 23.0897 11.3001 22.9106 11.4756C22.7316 11.6475 22.6421 11.8856 22.6421 12.1899C22.6421 12.5337 22.7459 12.7933 22.9536 12.9688C23.1613 13.1406 23.4782 13.2266 23.9043 13.2266C24.2588 13.2266 24.5828 13.1585 24.8765 13.0225C25.1701 12.8828 25.4422 12.7163 25.6929 12.5229ZM33.6582 14H32.6484V10.584C32.6484 10.3083 32.6323 10.0505 32.6001 9.81055C32.5679 9.56706 32.5088 9.37728 32.4229 9.24121C32.3333 9.09082 32.2044 8.97982 32.0361 8.9082C31.8678 8.83301 31.6494 8.79541 31.3809 8.79541C31.1051 8.79541 30.8169 8.86344 30.5161 8.99951C30.2153 9.13558 29.9271 9.30924 29.6514 9.52051V14H28.6416V8.00049H29.6514V8.6665C29.9665 8.40511 30.2923 8.20101 30.6289 8.0542C30.9655 7.90739 31.311 7.83398 31.6655 7.83398C32.3136 7.83398 32.8078 8.02913 33.1479 8.41943C33.4881 8.80973 33.6582 9.37191 33.6582 10.106V14ZM40.4688 14H39.459V13.3716C39.1689 13.6222 38.8664 13.8174 38.5513 13.957C38.2362 14.0967 37.8942 14.1665 37.5254 14.1665C36.8092 14.1665 36.2399 13.8908 35.8174 13.3394C35.3984 12.7879 35.189 12.0234 35.189 11.0459C35.189 10.5374 35.2606 10.0845 35.4038 9.68701C35.5506 9.28955 35.7476 8.95117 35.9946 8.67188C36.2381 8.39974 36.521 8.19206 36.8433 8.04883C37.1691 7.9056 37.5057 7.83398 37.853 7.83398C38.1681 7.83398 38.4474 7.868 38.6909 7.93604C38.9344 8.00049 39.1904 8.10254 39.459 8.24219V5.64258H40.4688V14ZM39.459 12.5229V9.08008C39.1868 8.95833 38.9434 8.87419 38.7285 8.82764C38.5137 8.78109 38.2791 8.75781 38.0249 8.75781C37.4591 8.75781 37.0187 8.95475 36.7036 9.34863C36.3885 9.74251 36.231 10.3011 36.231 11.0244C36.231 11.737 36.3527 12.2795 36.5962 12.6519C36.8397 13.0207 37.23 13.2051 37.7671 13.2051C38.0535 13.2051 38.3436 13.1424 38.6372 13.0171C38.9308 12.8882 39.2048 12.7235 39.459 12.5229ZM51.8447 6.00244L49.7661 14H48.5684L46.8872 7.36133L45.2437 14H44.0728L41.9565 6.00244H43.0469L44.728 12.6519L46.3823 6.00244H47.4619L49.1323 12.7163L50.8027 6.00244H51.8447ZM54.4229 6.99609H53.2842V5.94873H54.4229V6.99609ZM54.3584 14H53.3486V8.00049H54.3584V14ZM59.4717 13.9463C59.2819 13.9964 59.0742 14.0376 58.8486 14.0698C58.6266 14.1021 58.4279 14.1182 58.2524 14.1182C57.6401 14.1182 57.1746 13.9535 56.856 13.624C56.5373 13.2946 56.3779 12.7664 56.3779 12.0396V8.84912H55.6958V8.00049H56.3779V6.27637H57.3877V8.00049H59.4717V8.84912H57.3877V11.583C57.3877 11.8981 57.3949 12.1452 57.4092 12.3242C57.4235 12.4997 57.4736 12.6644 57.5596 12.8184C57.6383 12.9616 57.7458 13.0672 57.8818 13.1353C58.0215 13.1997 58.2327 13.2319 58.5156 13.2319C58.6803 13.2319 58.8522 13.2087 59.0312 13.1621C59.2103 13.112 59.3392 13.0708 59.418 13.0386H59.4717V13.9463ZM65.7129 14H64.7031V10.584C64.7031 10.3083 64.687 10.0505 64.6548 9.81055C64.6226 9.56706 64.5635 9.37728 64.4775 9.24121C64.388 9.09082 64.2591 8.97982 64.0908 8.9082C63.9225 8.83301 63.7041 8.79541 63.4355 8.79541C63.1598 8.79541 62.8716 8.86344 62.5708 8.99951C62.27 9.13558 61.9818 9.30924 61.7061 9.52051V14H60.6963V5.64258H61.7061V8.6665C62.0212 8.40511 62.347 8.20101 62.6836 8.0542C63.0202 7.90739 63.3657 7.83398 63.7202 7.83398C64.3683 7.83398 64.8625 8.02913 65.2026 8.41943C65.5428 8.80973 65.7129 9.37191 65.7129 10.106V14ZM72.9692 8.41943C72.9692 8.77393 72.9066 9.10335 72.7812 9.40771C72.6595 9.7085 72.4876 9.96989 72.2656 10.1919C71.9899 10.4676 71.6641 10.6753 71.2881 10.8149C70.9121 10.951 70.4377 11.019 69.8647 11.019H68.8013V14H67.7378V6.00244H69.9077C70.3875 6.00244 70.7939 6.04362 71.127 6.12598C71.46 6.20475 71.7554 6.33008 72.0132 6.50195C72.3175 6.70605 72.5521 6.96029 72.7168 7.26465C72.8851 7.56901 72.9692 7.95394 72.9692 8.41943ZM71.8628 8.44629C71.8628 8.17057 71.8145 7.93066 71.7178 7.72656C71.6211 7.52246 71.4743 7.35596 71.2773 7.22705C71.1055 7.11605 70.9085 7.03727 70.6865 6.99072C70.4681 6.94059 70.1906 6.91553 69.854 6.91553H68.8013V10.1113H69.6982C70.1279 10.1113 70.4771 10.0737 70.7456 9.99854C71.0142 9.91976 71.2326 9.79622 71.4009 9.62793C71.5692 9.45605 71.6873 9.27523 71.7554 9.08545C71.827 8.89567 71.8628 8.68262 71.8628 8.44629ZM78.6895 14H77.6851V13.3608C77.5955 13.4217 77.4738 13.5076 77.3198 13.6187C77.1694 13.7261 77.0226 13.812 76.8794 13.8765C76.7111 13.9588 76.5177 14.0269 76.2993 14.0806C76.0809 14.1379 75.8249 14.1665 75.5312 14.1665C74.9906 14.1665 74.5322 13.9875 74.1562 13.6294C73.7803 13.2713 73.5923 12.8148 73.5923 12.2598C73.5923 11.805 73.689 11.438 73.8823 11.1587C74.0793 10.8758 74.3586 10.6538 74.7202 10.4927C75.0854 10.3315 75.5241 10.2223 76.0361 10.165C76.5482 10.1077 77.0978 10.0648 77.6851 10.0361V9.88037C77.6851 9.6512 77.6439 9.46143 77.5615 9.31104C77.4827 9.16064 77.3682 9.04248 77.2178 8.95654C77.0745 8.87419 76.9027 8.81868 76.7021 8.79004C76.5016 8.76139 76.2922 8.74707 76.0737 8.74707C75.8088 8.74707 75.5133 8.78288 75.1875 8.85449C74.8617 8.92253 74.5251 9.02279 74.1777 9.15527H74.124V8.12939C74.321 8.07568 74.6056 8.0166 74.978 7.95215C75.3504 7.8877 75.7174 7.85547 76.0791 7.85547C76.5016 7.85547 76.8687 7.89128 77.1802 7.96289C77.4953 8.03092 77.7674 8.14909 77.9966 8.31738C78.2222 8.4821 78.394 8.69515 78.5122 8.95654C78.6304 9.21794 78.6895 9.54199 78.6895 9.92871V14ZM77.6851 12.5229V10.8525C77.3771 10.8704 77.0137 10.8973 76.5947 10.9331C76.1794 10.9689 75.8499 11.0208 75.6064 11.0889C75.3164 11.1712 75.0819 11.3001 74.9028 11.4756C74.7238 11.6475 74.6343 11.8856 74.6343 12.1899C74.6343 12.5337 74.7381 12.7933 74.9458 12.9688C75.1535 13.1406 75.4704 13.2266 75.8965 13.2266C76.251 13.2266 76.575 13.1585 76.8687 13.0225C77.1623 12.8828 77.4344 12.7163 77.6851 12.5229ZM81.6543 14H80.6445V5.64258H81.6543V14ZM88.6743 11.105H84.2539C84.2539 11.4738 84.3094 11.7961 84.4204 12.0718C84.5314 12.3439 84.6836 12.5677 84.877 12.7432C85.0632 12.915 85.2834 13.0439 85.5376 13.1299C85.7954 13.2158 86.0783 13.2588 86.3862 13.2588C86.7944 13.2588 87.2044 13.1782 87.6162 13.0171C88.0316 12.8524 88.327 12.6912 88.5024 12.5337H88.5562V13.6348C88.216 13.778 87.8687 13.8979 87.5142 13.9946C87.1597 14.0913 86.7873 14.1396 86.397 14.1396C85.4015 14.1396 84.6245 13.8711 84.0659 13.334C83.5073 12.7933 83.228 12.027 83.228 11.0352C83.228 10.054 83.4948 9.27523 84.0283 8.69873C84.5654 8.12223 85.2708 7.83398 86.1445 7.83398C86.9538 7.83398 87.5768 8.07031 88.0137 8.54297C88.4541 9.01562 88.6743 9.68701 88.6743 10.5571V11.105ZM87.6914 10.3315C87.6878 9.8016 87.5535 9.3916 87.2886 9.10156C87.0272 8.81152 86.6279 8.6665 86.0908 8.6665C85.5501 8.6665 85.1187 8.82585 84.7964 9.14453C84.4777 9.46322 84.2969 9.85889 84.2539 10.3315H87.6914ZM94.4912 12.2705C94.4912 12.8184 94.2638 13.2677 93.8091 13.6187C93.3579 13.9696 92.7402 14.145 91.9561 14.145C91.512 14.145 91.1038 14.0931 90.7314 13.9893C90.3626 13.8818 90.0529 13.7655 89.8022 13.6401V12.5068H89.856C90.1746 12.7467 90.5291 12.9383 90.9194 13.0815C91.3097 13.2212 91.6839 13.291 92.042 13.291C92.486 13.291 92.8333 13.2194 93.084 13.0762C93.3346 12.9329 93.46 12.7074 93.46 12.3994C93.46 12.1631 93.3919 11.984 93.2559 11.8623C93.1198 11.7406 92.8584 11.6367 92.4717 11.5508C92.3285 11.5186 92.1405 11.481 91.9077 11.438C91.6785 11.395 91.4691 11.3485 91.2793 11.2983C90.7529 11.1587 90.3787 10.9546 90.1567 10.686C89.9383 10.4139 89.8291 10.0809 89.8291 9.68701C89.8291 9.43994 89.8792 9.20719 89.9795 8.98877C90.0833 8.77035 90.2391 8.5752 90.4468 8.40332C90.6473 8.23503 90.9015 8.10254 91.2095 8.00586C91.521 7.9056 91.8683 7.85547 92.2515 7.85547C92.6095 7.85547 92.9712 7.90023 93.3364 7.98975C93.7052 8.07568 94.0114 8.18132 94.2549 8.30664V9.38623H94.2012C93.9434 9.19645 93.63 9.03711 93.2612 8.9082C92.8924 8.77572 92.5308 8.70947 92.1763 8.70947C91.8075 8.70947 91.4959 8.78109 91.2417 8.92432C90.9875 9.06396 90.8604 9.27344 90.8604 9.55273C90.8604 9.7998 90.9373 9.986 91.0913 10.1113C91.2417 10.2367 91.4852 10.3387 91.8218 10.4175C92.008 10.4604 92.2157 10.5034 92.4448 10.5464C92.6776 10.5894 92.8709 10.6287 93.0249 10.6646C93.494 10.772 93.8556 10.9564 94.1099 11.2178C94.3641 11.4827 94.4912 11.8337 94.4912 12.2705ZM99.0566 13.9463C98.8669 13.9964 98.6592 14.0376 98.4336 14.0698C98.2116 14.1021 98.0129 14.1182 97.8374 14.1182C97.2251 14.1182 96.7596 13.9535 96.4409 13.624C96.1222 13.2946 95.9629 12.7664 95.9629 12.0396V8.84912H95.2808V8.00049H95.9629V6.27637H96.9727V8.00049H99.0566V8.84912H96.9727V11.583C96.9727 11.8981 96.9798 12.1452 96.9941 12.3242C97.0085 12.4997 97.0586 12.6644 97.1445 12.8184C97.2233 12.9616 97.3307 13.0672 97.4668 13.1353C97.6064 13.1997 97.8177 13.2319 98.1006 13.2319C98.2653 13.2319 98.4372 13.2087 98.6162 13.1621C98.7952 13.112 98.9242 13.0708 99.0029 13.0386H99.0566V13.9463ZM101.366 6.99609H100.228V5.94873H101.366V6.99609ZM101.302 14H100.292V8.00049H101.302V14ZM108.316 14H107.307V10.584C107.307 10.3083 107.291 10.0505 107.258 9.81055C107.226 9.56706 107.167 9.37728 107.081 9.24121C106.992 9.09082 106.863 8.97982 106.694 8.9082C106.526 8.83301 106.308 8.79541 106.039 8.79541C105.763 8.79541 105.475 8.86344 105.174 8.99951C104.874 9.13558 104.585 9.30924 104.31 9.52051V14H103.3V8.00049H104.31V8.6665C104.625 8.40511 104.951 8.20101 105.287 8.0542C105.624 7.90739 105.969 7.83398 106.324 7.83398C106.972 7.83398 107.466 8.02913 107.806 8.41943C108.146 8.80973 108.316 9.37191 108.316 10.106V14ZM115.283 11.105H110.862C110.862 11.4738 110.918 11.7961 111.029 12.0718C111.14 12.3439 111.292 12.5677 111.485 12.7432C111.672 12.915 111.892 13.0439 112.146 13.1299C112.404 13.2158 112.687 13.2588 112.995 13.2588C113.403 13.2588 113.813 13.1782 114.225 13.0171C114.64 12.8524 114.935 12.6912 115.111 12.5337H115.165V13.6348C114.824 13.778 114.477 13.8979 114.123 13.9946C113.768 14.0913 113.396 14.1396 113.005 14.1396C112.01 14.1396 111.233 13.8711 110.674 13.334C110.116 12.7933 109.836 12.027 109.836 11.0352C109.836 10.054 110.103 9.27523 110.637 8.69873C111.174 8.12223 111.879 7.83398 112.753 7.83398C113.562 7.83398 114.185 8.07031 114.622 8.54297C115.062 9.01562 115.283 9.68701 115.283 10.5571V11.105ZM114.3 10.3315C114.296 9.8016 114.162 9.3916 113.897 9.10156C113.636 8.81152 113.236 8.6665 112.699 8.6665C112.159 8.6665 111.727 8.82585 111.405 9.14453C111.086 9.46322 110.905 9.85889 110.862 10.3315H114.3Z" fill="white"/>
</g>
<defs>
<linearGradient id="paint0_linear_202_4" x1="148.962" y1="9.66323" x2="126.397" y2="17.7381" gradientUnits="userSpaceOnUse">
<stop stop-color="#1E1E1E"/>
<stop offset="1" stop-color="#2B2B2B"/>
</linearGradient>
<linearGradient id="paint1_linear_202_4" x1="143.256" y1="14.3276" x2="120.686" y2="20.7971" gradientUnits="userSpaceOnUse">
<stop stop-color="#15652F"/>
<stop offset="0.84" stop-color="#35A349"/>
<stop offset="0.87" stop-color="#319B46"/>
<stop offset="0.93" stop-color="#28883E"/>
<stop offset="0.99" stop-color="#1A6730"/>
<stop offset="1" stop-color="#18632F"/>
</linearGradient>
<linearGradient id="paint2_linear_202_4" x1="129.478" y1="10.7656" x2="151.431" y2="7.08722" gradientUnits="userSpaceOnUse">
<stop stop-color="#E6E7E8"/>
<stop offset="0.39" stop-color="#BBBDBF"/>
<stop offset="0.5" stop-color="#AAACAE"/>
<stop offset="0.7" stop-color="#7F8183"/>
<stop offset="0.94" stop-color="#474A4C"/>
</linearGradient>
<linearGradient id="paint3_linear_202_4" x1="123.566" y1="18.9778" x2="114.396" y2="20.4059" gradientUnits="userSpaceOnUse">
<stop stop-color="#15652F"/>
<stop offset="0.84" stop-color="#35A349"/>
<stop offset="0.87" stop-color="#319B46"/>
<stop offset="0.93" stop-color="#28883E"/>
<stop offset="0.99" stop-color="#1A6730"/>
<stop offset="1" stop-color="#18632F"/>
</linearGradient>
<linearGradient id="paint4_linear_202_4" x1="139.766" y1="11.4452" x2="127.115" y2="6.82728" gradientUnits="userSpaceOnUse">
<stop stop-color="#4F4D4D"/>
<stop offset="0.04" stop-color="#5B5959"/>
<stop offset="0.11" stop-color="#7B7A7A"/>
<stop offset="0.18" stop-color="#9F9F9F"/>
<stop offset="0.27" stop-color="#9A9898"/>
<stop offset="0.33" stop-color="#949090"/>
<stop offset="0.4" stop-color="#9F9C9C"/>
<stop offset="0.54" stop-color="#C1C0C0"/>
<stop offset="0.61" stop-color="#BAB9B9"/>
<stop offset="0.69" stop-color="#A7A6A6"/>
<stop offset="0.79" stop-color="#888787"/>
<stop offset="0.91" stop-color="#5E5C5C"/>
<stop offset="0.94" stop-color="#4F4D4D"/>
</linearGradient>
<linearGradient id="paint5_linear_202_4" x1="118.971" y1="14.2718" x2="129.963" y2="18.1959" gradientUnits="userSpaceOnUse">
<stop stop-color="#E6E7E8"/>
<stop offset="0.39" stop-color="#BBBDBF"/>
<stop offset="0.5" stop-color="#AAACAE"/>
<stop offset="0.7" stop-color="#7F8183"/>
<stop offset="0.94" stop-color="#474A4C"/>
</linearGradient>
<linearGradient id="paint6_linear_202_4" x1="132.059" y1="10.422" x2="118.393" y2="11.4308" gradientUnits="userSpaceOnUse">
<stop stop-color="#1E1E1E"/>
<stop offset="1" stop-color="#2B2B2B"/>
</linearGradient>
<clipPath id="clip0_202_4">
<rect width="155" height="20" fill="white"/>
</clipPath>
</defs>
</svg>
